<svg width="20" height="20" viewBox="0 0 20 20" fill="none" xmlns="http://www.w3.org/2000/svg">
<path d="M15.5024 14.5504C14.0173 14.5504 12.8091 15.7728 12.8091 17.2752C12.8091 18.7776 14.0173 20 15.5024 20C16.9874 20 18.1956 18.7776 18.1956 17.2752C18.1956 15.7728 16.9874 14.5504 15.5024 14.5504ZM15.5024 18.3651C14.9082 18.3651 14.4251 17.8763 14.4251 17.2752C14.4251 16.6741 14.9082 16.1853 15.5024 16.1853C16.0965 16.1853 16.5797 16.6741 16.5797 17.2752C16.5797 17.8763 16.0965 18.3651 15.5024 18.3651Z" fill="#FF8A02"/>
<path d="M19.8283 4.01932C19.6753 3.82123 19.4407 3.70569 19.1922 3.70569H4.98744L4.26025 0.627504C4.17326 0.259674 3.84816 3.73313e-09 3.47433 3.73313e-09H0.80798C0.361718 -4.26778e-05 0 0.365909 0 0.817394C0 1.26888 0.361718 1.63483 0.80798 1.63483H2.83658L5.46251 12.7509C5.5495 13.1191 5.8746 13.3784 6.24843 13.3784H17.2261C17.5975 13.3784 17.9212 13.1223 18.0103 12.7577L19.9765 4.71955C20.0359 4.47546 19.9813 4.2174 19.8283 4.01932ZM16.5939 11.7436H6.88618L5.37362 5.34057H18.1598L16.5939 11.7436Z" fill="#FF8A02"/>
<path d="M7.32574 14.5504C5.84064 14.5504 4.63247 15.7728 4.63247 17.2752C4.63247 18.7776 5.84068 20 7.32574 20C8.81079 20 10.019 18.7776 10.019 17.2752C10.019 15.7728 8.81079 14.5504 7.32574 14.5504ZM7.32574 18.3651C6.73161 18.3651 6.24843 17.8763 6.24843 17.2752C6.24843 16.6741 6.73161 16.1853 7.32574 16.1853C7.91987 16.1853 8.40304 16.6741 8.40304 17.2752C8.40304 17.8763 7.91987 18.3651 7.32574 18.3651Z" fill="#FF8A02"/>
</svg>
