<?xml version="1.0" encoding="UTF-8"?>
<svg fill="none" viewBox="0 0 20 20" xmlns="http://www.w3.org/2000/svg">
<rect width="20" height="20" fill="#E5E5E5"/>
<g clip-path="url(#c)">
<rect transform="translate(-785 -1238)" width="1646" height="2294" fill="#fff"/>
<g filter="url(#b)">
<path d="M-192 -826H508V342H-192V-826Z" fill="#fff"/>
</g>
<mask id="a" fill="white">
<path d="m0 6.9231c0-0.84967 0.68879-1.5385 1.5385-1.5385h3.0769c0.84967 0 1.5385 0.68879 1.5385 1.5385v10.769c0 0.8497-0.6888 1.5385-1.5385 1.5385h-3.0769c-0.84967 0-1.5385-0.6888-1.5385-1.5385v-10.769z"/>
<path d="m13.846 11.538c0-0.8497 0.6887-1.5385 1.5384-1.5385h3.0769c0.8497 0 1.5385 0.6888 1.5385 1.5385v6.1538c0 0.8497-0.6888 1.5385-1.5385 1.5385h-3.0769c-0.8497 0-1.5384-0.6888-1.5384-1.5385v-6.1538z"/>
<path d="m6.9231 1.5385c0-0.84967 0.68879-1.5385 1.5385-1.5385h3.077c0.8496 0 1.5384 0.68879 1.5384 1.5385v16.154c0 0.8497-0.6888 1.5385-1.5384 1.5385h-3.077c-0.84967 0-1.5385-0.6888-1.5385-1.5385v-16.154z"/>
</mask>
<path d="m1.5385 6.8846h3.0769v-3h-3.0769v3zm3.1154 0.03846v10.769h3v-10.769h-3zm-0.03847 10.808h-3.0769v3h3.0769v-3zm-3.1154-0.0385v-10.769h-3v10.769h3zm0.03846 0.0385c-0.00808 0-0.01199-0.0014-0.01451-0.0024-0.00352-0.0015-0.00811-0.0043-0.01268-0.0089s-0.00738-0.0092-0.00886-0.0127c-0.00107-0.0025-0.00241-0.0064-0.00241-0.0145h-3c0 1.6781 1.3604 3.0385 3.0385 3.0385v-3zm3.1154-0.0385c0 0.0081-0.00135 0.012-0.00241 0.0145-0.00149 0.0035-0.00429 0.0081-0.00886 0.0127s-0.00917 0.0074-0.01268 0.0089c-0.00252 1e-3 -0.00644 0.0024-0.01452 0.0024v3c1.6781 0 3.0385-1.3604 3.0385-3.0385h-3zm-0.03847-10.808c0.00808 0 0.012 0.00134 0.01452 0.0024 0.00351 0.00149 0.00811 0.00429 0.01268 0.00886s0.00737 0.00917 0.00886 0.01269c0.00106 0.00251 0.00241 0.00643 0.00241 0.01451h3c0-1.6781-1.3604-3.0385-3.0385-3.0385v3zm-3.0769-3c-1.6781 0-3.0385 1.3604-3.0385 3.0385h3c0-0.00808 0.00134-0.012 0.00241-0.01451 0.00148-0.00352 0.00429-0.00812 0.00886-0.01269s0.00916-0.00737 0.01268-0.00886c0.00252-0.00106 0.00643-0.0024 0.01451-0.0024v-3zm13.846 7.6154h3.0769v-3h-3.0769v3zm3.1154 0.0385v6.1538h3v-6.1538h-3zm-0.0385 6.1923h-3.0769v3h3.0769v-3zm-3.1153-0.0385v-6.1538h-3v6.1538h3zm0.0384 0.0385c-0.0081 0-0.012-0.0014-0.0145-0.0024-0.0035-0.0015-0.0081-0.0043-0.0127-0.0089s-0.0074-0.0092-0.0088-0.0127c-0.0011-0.0025-0.0024-0.0064-0.0024-0.0145h-3c0 1.6781 1.3603 3.0385 3.0384 3.0385v-3zm3.1154-0.0385c0 0.0081-0.0013 0.012-0.0024 0.0145-0.0015 0.0035-0.0043 0.0081-0.0089 0.0127-0.0045 0.0046-0.0091 0.0074-0.0127 0.0089-0.0025 1e-3 -0.0064 0.0024-0.0145 0.0024v3c1.6781 0 3.0385-1.3604 3.0385-3.0385h-3zm-0.0385-6.1923c0.0081 0 0.012 0.0013 0.0145 0.0024 0.0036 0.0015 0.0082 0.0043 0.0127 0.0089 0.0046 0.0045 0.0074 0.0091 0.0089 0.0127 0.0011 0.0025 0.0024 0.0064 0.0024 0.0145h3c0-1.6781-1.3604-3.0385-3.0385-3.0385v3zm-3.0769-3c-1.6781 0-3.0384 1.3604-3.0384 3.0385h3c0-0.0081 0.0013-0.012 0.0024-0.0145 0.0014-0.0036 0.0042-0.0082 0.0088-0.0127 0.0046-0.0046 0.0092-0.0074 0.0127-0.0089 0.0025-0.0011 0.0064-0.0024 0.0145-0.0024v-3zm-6.9231-7h3.077v-3h-3.077v3zm3.1154 0.03846v16.154h3v-16.154h-3zm-0.0384 16.192h-3.077v3h3.077v-3zm-3.1154-0.0385v-16.154h-3v16.154h3zm0.03846 0.0385c-0.00808 0-0.012-0.0014-0.01451-0.0024-0.00352-0.0015-0.00812-0.0043-0.01269-0.0089s-0.00737-0.0092-0.00886-0.0127c-0.00106-0.0025-0.0024-0.0064-0.0024-0.0145h-3c0 1.6781 1.3604 3.0385 3.0385 3.0385v-3zm3.1154-0.0385c0 0.0081-0.0013 0.012-0.0024 0.0145-0.0015 0.0035-0.0043 0.0081-0.0088 0.0127-0.0046 0.0046-0.0092 0.0074-0.0127 0.0089-0.0025 1e-3 -0.0065 0.0024-0.0145 0.0024v3c1.6781 0 3.0384-1.3604 3.0384-3.0385h-3zm-0.0384-16.192c8e-3 0 0.012 0.00134 0.0145 0.00241 0.0035 0.00148 0.0081 0.00429 0.0127 0.00886 0.0045 0.00457 0.0073 0.00916 0.0088 0.01268 0.0011 0.00252 0.0024 0.00643 0.0024 0.01451h3c0-1.6781-1.3603-3.0385-3.0384-3.0385v3zm-3.077-3c-1.6781 0-3.0385 1.3604-3.0385 3.0385h3c0-0.00808 0.00134-0.01199 0.0024-0.01451 0.00149-0.00352 0.00429-0.00811 0.00886-0.01268s0.00917-0.00738 0.01269-0.00886c0.00251-0.00107 0.00643-0.00241 0.01451-0.00241v-3z" fill="#BDC5CD" mask="url(#a)"/>
</g>
<defs>
<filter id="b" x="-197" y="-831" width="710" height="1178" color-interpolation-filters="sRGB" filterUnits="userSpaceOnUse">
<feFlood flood-opacity="0" result="BackgroundImageFix"/>
<feColorMatrix in="SourceAlpha" values="0 0 0 0 0 0 0 0 0 0 0 0 0 0 0 0 0 0 127 0"/>
<feOffset/>
<feGaussianBlur stdDeviation="2.5"/>
<feColorMatrix values="0 0 0 0 0 0 0 0 0 0 0 0 0 0 0 0 0 0 0.15 0"/>
<feBlend in2="BackgroundImageFix" result="effect1_dropShadow"/>
<feBlend in="SourceGraphic" in2="effect1_dropShadow" result="shape"/>
</filter>
<clipPath id="c">
<rect transform="translate(-785 -1238)" width="1646" height="2294" fill="#fff"/>
</clipPath>
</defs>
</svg>
