<svg width="27" height="27" viewBox="0 0 27 27" fill="none" xmlns="http://www.w3.org/2000/svg">
<path d="M0 1.55556C0 0.696446 0.696446 0 1.55556 0H5.44444C6.30355 0 7 0.696446 7 1.55556V5.44444C7 6.30355 6.30355 7 5.44444 7H1.55556C0.696446 7 0 6.30355 0 5.44444V1.55556Z" fill="#FF8A02"/>
<path d="M0 11.5556C0 10.6964 0.696446 10 1.55556 10H5.44444C6.30355 10 7 10.6964 7 11.5556V15.4444C7 16.3036 6.30355 17 5.44444 17H1.55556C0.696446 17 0 16.3036 0 15.4444V11.5556Z" fill="#FF8A02"/>
<path d="M0 21.5556C0 20.6964 0.696446 20 1.55556 20H5.44444C6.30355 20 7 20.6964 7 21.5556V25.4444C7 26.3036 6.30355 27 5.44444 27H1.55556C0.696446 27 0 26.3036 0 25.4444V21.5556Z" fill="#FF8A02"/>
<path d="M10 1.55556C10 0.696446 10.6964 0 11.5556 0H15.4444C16.3036 0 17 0.696446 17 1.55556V5.44444C17 6.30355 16.3036 7 15.4444 7H11.5556C10.6964 7 10 6.30355 10 5.44444V1.55556Z" fill="#FF8A02"/>
<path d="M10 11.5556C10 10.6964 10.6964 10 11.5556 10H15.4444C16.3036 10 17 10.6964 17 11.5556V15.4444C17 16.3036 16.3036 17 15.4444 17H11.5556C10.6964 17 10 16.3036 10 15.4444V11.5556Z" fill="#FF8A02"/>
<path d="M10 21.5556C10 20.6964 10.6964 20 11.5556 20H15.4444C16.3036 20 17 20.6964 17 21.5556V25.4444C17 26.3036 16.3036 27 15.4444 27H11.5556C10.6964 27 10 26.3036 10 25.4444V21.5556Z" fill="#FF8A02"/>
<path d="M20 1.55556C20 0.696446 20.6964 0 21.5556 0H25.4444C26.3036 0 27 0.696446 27 1.55556V5.44444C27 6.30355 26.3036 7 25.4444 7H21.5556C20.6964 7 20 6.30355 20 5.44444V1.55556Z" fill="#FF8A02"/>
<path d="M20 11.5556C20 10.6964 20.6964 10 21.5556 10H25.4444C26.3036 10 27 10.6964 27 11.5556V15.4444C27 16.3036 26.3036 17 25.4444 17H21.5556C20.6964 17 20 16.3036 20 15.4444V11.5556Z" fill="#FF8A02"/>
<path d="M20 21.5556C20 20.6964 20.6964 20 21.5556 20H25.4444C26.3036 20 27 20.6964 27 21.5556V25.4444C27 26.3036 26.3036 27 25.4444 27H21.5556C20.6964 27 20 26.3036 20 25.4444V21.5556Z" fill="#FF8A02"/>
</svg>
