<svg width="27" height="27" viewBox="0 0 27 27" fill="none" xmlns="http://www.w3.org/2000/svg">
<path d="M0 1.55556C0 0.696446 0.696446 0 1.55556 0H25.4444C26.3036 0 27 0.696446 27 1.55556V5.44444C27 6.30355 26.3036 7 25.4444 7H1.55556C0.696446 7 0 6.30355 0 5.44444V1.55556Z" fill="#BDC5CD"/>
<path d="M0 11.5556C0 10.6964 0.696446 10 1.55556 10H25.4444C26.3036 10 27 10.6964 27 11.5556V15.4444C27 16.3036 26.3036 17 25.4444 17H1.55556C0.696446 17 0 16.3036 0 15.4444V11.5556Z" fill="#BDC5CD"/>
<path d="M0 21.5556C0 20.6964 0.696446 20 1.55556 20H25.4444C26.3036 20 27 20.6964 27 21.5556V25.4444C27 26.3036 26.3036 27 25.4444 27H1.55556C0.696446 27 0 26.3036 0 25.4444V21.5556Z" fill="#BDC5CD"/>
</svg>
